<svg width="21" height="20" viewBox="0 0 21 20" fill="none" xmlns="http://www.w3.org/2000/svg">
<path d="M8.95702 0.780399C9.13691 0.547506 9.36005 0.357889 9.61203 0.223778C9.86401 0.0896676 10.1392 0.0140409 10.42 0.00177594C10.7007 -0.010489 10.9807 0.0408802 11.2419 0.15257C11.5031 0.264261 11.7397 0.433792 11.9365 0.650229L12.045 0.780399L15.9985 5.89823H18.9991C19.21 5.89775 19.4187 5.94536 19.6114 6.03794C19.8041 6.13053 19.9765 6.266 20.1174 6.43548C20.2582 6.60497 20.3643 6.80465 20.4286 7.02144C20.493 7.23823 20.5141 7.46725 20.4908 7.69349L20.3983 8.5244L20.2978 9.32712L20.2154 9.92807L20.1199 10.5735L20.0113 11.2515L19.8887 11.9544L19.752 12.6714C19.6796 13.033 19.6018 13.3942 19.5188 13.7551C19.2962 14.7075 19.0169 15.6434 18.6824 16.557L18.4603 17.1427L18.2452 17.6721L18.0421 18.1429L17.9476 18.3533L17.6973 18.8848C17.3756 19.5465 16.7685 19.937 16.1262 19.9934L15.9653 19.9999H5.02765C4.67623 20.0028 4.3307 19.9026 4.02795 19.71C3.72521 19.5174 3.47662 19.2397 3.30875 18.9065L3.07554 18.4184L2.8946 18.017L2.79911 17.7946L2.59806 17.3076C2.13898 16.1573 1.76652 14.9689 1.48429 13.754C1.42972 13.5181 1.37745 13.2816 1.32748 13.0445L1.18474 12.3416L1.05708 11.6539L0.944495 10.9889L0.843974 10.3522L0.756521 9.75125L0.682135 9.19478L0.591666 8.4539L0.525322 7.85078L0.508234 7.68481C0.487441 7.4717 0.506126 7.25625 0.563202 7.05101C0.620278 6.84576 0.714606 6.65481 0.840699 6.48927C0.966791 6.32372 1.12213 6.18689 1.29768 6.08673C1.47323 5.98656 1.66548 5.92507 1.86326 5.90583L1.99996 5.89823H5.00453L8.95702 0.780399ZM18.4251 8.06773H2.57293L2.63526 8.59274L2.71165 9.18719L2.80413 9.84237L2.91269 10.5453C2.9529 10.7861 2.99512 11.0327 3.03935 11.2851L3.1831 12.052C3.25949 12.4403 3.34393 12.8352 3.4344 13.2279C3.6895 14.3243 4.02565 15.397 4.43961 16.4355L4.63663 16.9138L4.81958 17.3304L4.98343 17.6808L5.0558 17.8304H15.9392L16.094 17.5018L16.2719 17.1058L16.4669 16.647C16.8358 15.7521 17.258 14.5664 17.5676 13.2279C17.6933 12.6855 17.8049 12.1344 17.9044 11.5932L18.0451 10.7926L18.1657 10.0235L18.219 9.6558L18.3145 8.96481L18.3919 8.34651L18.4251 8.06773ZM8.47653 11.1441L8.97913 14.3983C9.01423 14.6778 8.94707 14.961 8.79191 15.188C8.63674 15.4149 8.40577 15.5677 8.14795 15.614C7.89014 15.6603 7.62577 15.5964 7.41088 15.4359C7.19599 15.2753 7.04749 15.0308 6.99686 14.7541L6.49425 11.4999C6.46819 11.3574 6.46889 11.2108 6.49632 11.0686C6.52374 10.9265 6.57734 10.7917 6.65393 10.6723C6.73051 10.5529 6.82853 10.4513 6.94217 10.3736C7.05581 10.2958 7.18276 10.2435 7.31549 10.2197C7.44822 10.1959 7.58404 10.201 7.71488 10.2349C7.84573 10.2688 7.96894 10.3306 8.07721 10.4168C8.18549 10.503 8.27662 10.6118 8.34521 10.7368C8.41381 10.8617 8.45846 11.0002 8.47653 11.1441ZM13.5649 10.2372L13.6815 10.2513C13.9248 10.2947 14.1449 10.433 14.2998 10.64C14.4547 10.847 14.5338 11.1082 14.5219 11.374L14.5088 11.4999L14.0062 14.7541C13.9635 15.0265 13.8262 15.2711 13.6222 15.438C13.4182 15.6048 13.1628 15.6814 12.9083 15.6521C12.6537 15.6227 12.4191 15.4897 12.2524 15.2801C12.0856 15.0705 11.9992 14.8001 12.0108 14.5241L12.0239 14.3983L12.5265 11.1441C12.5666 10.8819 12.6945 10.6447 12.8859 10.4776C13.0773 10.3104 13.3189 10.2249 13.5649 10.2372ZM10.501 2.16887L7.62109 5.89823H13.3809L10.501 2.16887Z" fill="white"/>
</svg>
